<svg width="243" height="171" viewBox="0 0 243 171" fill="none" xmlns="http://www.w3.org/2000/svg">
<path fill-rule="evenodd" clip-rule="evenodd" d="M10 0C4.47717 0 0 4.47716 0 10V161C0 166.523 4.47717 171 10 171H74.5H76C76.2614 171 76.5205 170.99 76.7769 170.97C122.945 169.763 160 131.959 160 85.5C160 39.041 122.945 1.23662 76.7769 0.0297241C76.5205 0.010025 76.2614 0 76 0H74.5H10Z" fill="#DBE5EF"/>
<path d="M55.9229 94.3077V69.6924H59.0387H144.538L149.461 82.0001L154.384 94.3077H55.9229Z" fill="#74A9E8"/>
<path d="M55.9229 132.461V107.846H59.0387H144.538L149.461 120.153L154.384 132.461H55.9229Z" fill="#74A9E8"/>
<path d="M55.9229 56.1539V31.5386H59.0387H144.538L149.461 43.8463L154.384 56.1539H55.9229Z" fill="#74A9E8"/>
<path d="M55.9229 129.384V111.538C55.9229 109.499 57.5759 107.846 59.6152 107.846H71.3075H198.077C200.116 107.846 201.769 109.499 201.769 111.538V129.384C201.769 131.423 200.116 133.076 198.077 133.076H59.6152C57.576 133.076 55.9229 131.423 55.9229 129.384Z" stroke="#1B1B1B" stroke-width="3.6923"/>
<path d="M55.9229 91.2308V73.3847C55.9229 71.3455 57.5759 69.6924 59.6152 69.6924H71.3075H198.077C200.116 69.6924 201.769 71.3455 201.769 73.3847V91.2308C201.769 93.27 200.116 94.9231 198.077 94.9231H59.6152C57.576 94.9231 55.9229 93.27 55.9229 91.2308Z" stroke="#1B1B1B" stroke-width="3.6923"/>
<path d="M55.9229 53.077V35.2309C55.9229 33.1917 57.5759 31.5386 59.6152 31.5386H71.3075H198.077C200.116 31.5386 201.769 33.1917 201.769 35.2309V53.077C201.769 55.1162 200.116 56.7693 198.077 56.7693H59.6152C57.576 56.7693 55.9229 55.1162 55.9229 53.077Z" stroke="#1B1B1B" stroke-width="3.6923"/>
<path d="M46.0771 143.538V21.6923C46.0771 19.6531 47.7303 18 49.7695 18H64.5127H217.154C219.193 18 220.846 19.6531 220.846 21.6923V143.538" stroke="#1B1B1B" stroke-width="3.6923"/>
<path d="M75.6152 118.308V122" stroke="#1B1B1B" stroke-width="3.6923"/>
<path d="M75.6152 80.1538V83.8461" stroke="#1B1B1B" stroke-width="3.6923"/>
<path d="M75.6152 42V45.6923" stroke="#1B1B1B" stroke-width="3.6923"/>
<path d="M185.153 120.154H193.769" stroke="#1B1B1B" stroke-width="8.61538"/>
<path d="M185.153 82H193.769" stroke="#1B1B1B" stroke-width="8.61538"/>
<path d="M185.153 43.8459H193.769" stroke="#1B1B1B" stroke-width="8.61538"/>
<path d="M172.845 120.154H181.461" stroke="#1B1B1B" stroke-width="8.61538"/>
<path d="M172.845 82H181.461" stroke="#1B1B1B" stroke-width="8.61538"/>
<path d="M172.845 43.8459H181.461" stroke="#1B1B1B" stroke-width="8.61538"/>
<path d="M160.539 120.154H169.154" stroke="#1B1B1B" stroke-width="8.61538"/>
<path d="M160.539 82H169.154" stroke="#1B1B1B" stroke-width="8.61538"/>
<path d="M160.539 43.8459H169.154" stroke="#1B1B1B" stroke-width="8.61538"/>
<path d="M68.2305 118.308V122" stroke="#1B1B1B" stroke-width="3.6923"/>
<path d="M68.2305 80.1538V83.8461" stroke="#1B1B1B" stroke-width="3.6923"/>
<path d="M68.2305 42V45.6923" stroke="#1B1B1B" stroke-width="3.6923"/>
<path d="M203 85.6924H204.23C206.949 85.6924 209.153 87.8965 209.153 90.6155V115.846C209.153 118.565 206.949 120.769 204.23 120.769H190.692" stroke="#1B1B1B" stroke-width="3.6923"/>
<path d="M209.154 111.538V146.615C209.154 149.334 206.95 151.538 204.231 151.538H27" stroke="#1B1B1B" stroke-width="3.6923"/>
<path d="M203 44.4614H204.231C206.95 44.4614 209.154 46.6656 209.154 49.3845V81.9999V94.9229" stroke="#1B1B1B" stroke-width="3.6923"/>
<path d="M177.153 81.3846V81.3846C177.153 79.0055 179.082 77.0769 181.461 77.0769H208.538C211.257 77.0769 213.461 74.8728 213.461 72.1538V46.9231C213.461 44.2041 211.257 42 208.538 42H191.307C190.288 42 189.461 42.8266 189.461 43.8462V43.8462" stroke="#74A9E8" stroke-width="3.6923"/>
<path d="M203.615 117.692H208.538C211.257 117.692 213.461 115.488 213.461 112.769V82.0002C213.461 79.2813 211.257 77.0771 208.538 77.0771L194.384 77.0771C192.005 77.0771 190.076 79.0058 190.076 81.3848V81.3848" stroke="#74A9E8" stroke-width="3.6923"/>
<path d="M213.461 112.769V147.231C213.461 149.949 215.666 152.154 218.384 152.154H243" stroke="#74A9E8" stroke-width="3.6923"/>
</svg>
