<svg width="256" height="171" viewBox="0 0 256 171" fill="none" xmlns="http://www.w3.org/2000/svg">
<rect width="256" height="171" fill="#F5F5F5"/>
<g id="&#209;&#131;&#209;&#129;&#208;&#187;&#209;&#131;&#208;&#179;&#208;&#184;" clip-path="url(#clip0_1083_5433)">
<rect width="1440" height="1512" transform="translate(-179 -197)" fill="white"/>
<g id="section 1">
<g id="&#209;&#128;&#208;&#176;&#208;&#177;&#208;&#190;&#209;&#130;&#208;&#176; &#209;&#129; &#208;&#191;&#208;&#186;">
<g id="img">
<path id="Union" fill-rule="evenodd" clip-rule="evenodd" d="M10 0C4.47715 0 0 4.47716 0 10V161C0 166.523 4.47715 171 10 171H76C76.0426 171 76.0851 171 76.1275 170.999C76.2515 171 76.3756 171 76.5 171C123.72 171 162 132.72 162 85.5C162 38.2797 123.72 0 76.5 0C76.3756 0 76.2515 0.000265565 76.1275 0.000796158C76.0851 0.00026591 76.0426 0 76 0H10Z" fill="#DBE5EF"/>
<g id="Group 57">
<path id="Union_2" fill-rule="evenodd" clip-rule="evenodd" d="M194.535 21.4234H251.729C252.515 21.4234 253.153 22.0608 253.153 22.847V113.485H256V22.847C256 20.4883 254.088 18.5762 251.729 18.5762H190.988V18.6261C190.292 18.5474 189.56 18.6406 188.847 18.9425L136.809 40.9925L137.92 43.6141L189.958 21.5641C190.897 21.1664 191.937 21.8554 191.937 22.875V147.255C191.937 148.192 191.047 148.874 190.142 148.629L130.824 132.609C130.203 132.442 129.772 131.878 129.772 131.235V118.23H126.925V131.235C126.925 133.165 128.219 134.855 130.082 135.358L189.4 151.378C190.062 151.557 190.722 151.571 191.341 151.448H251.729C254.088 151.448 256 149.536 256 147.177V125.348H253.153V147.177C253.153 147.963 252.515 148.601 251.729 148.601H194.57C194.709 148.18 194.784 147.729 194.784 147.255V22.875C194.784 22.3593 194.696 21.8718 194.535 21.4234Z" fill="#1B1B1B"/>
<circle id="Ellipse 13" cx="180.073" cy="77.4195" r="28.947" fill="#74A9E8"/>
<path id="Ellipse 14" d="M187.743 105.332C203.158 101.096 212.222 85.1657 207.986 69.75C203.751 54.3343 187.82 45.271 172.404 49.5065C156.989 53.7421 147.925 69.6726 152.161 85.0883" stroke="#1B1B1B" stroke-width="2.84725" stroke-linecap="square"/>
<path id="Vector 44" d="M150.651 77.8938H173.429C175.002 77.8938 176.277 76.6191 176.277 75.0466V52.7431V48.9468" stroke="#1B1B1B" stroke-width="2.84725"/>
<path id="Vector 45" d="M166.312 52.2686V64.6066C166.312 66.1791 165.037 67.4539 163.465 67.4539H156.821H153.5" stroke="#1B1B1B" stroke-width="2.84725"/>
<path id="Vector 43" d="M199.53 97.3501L232.273 130.093" stroke="#1B1B1B" stroke-width="2.84725"/>
<path id="Vector 46" d="M182.92 69.3523H184.344V66.5051H182.92V69.3523ZM176.277 69.3523H182.92V66.5051H176.277V69.3523Z" fill="#1B1B1B"/>
<path id="Vector 48" d="M156.346 84.5376L156.346 85.9613L159.194 85.9613L159.194 84.5376L156.346 84.5376ZM156.346 77.894L156.346 84.5376L159.194 84.5376L159.194 77.894L156.346 77.894Z" fill="#1B1B1B"/>
<path id="Vector 47" d="M182.92 62.2342H184.344V59.3869H182.92V62.2342ZM176.277 62.2342H182.92V59.3869H176.277V62.2342Z" fill="#1B1B1B"/>
<path id="Vector 49" d="M163.465 84.5376L163.465 85.9613L166.312 85.9613L166.312 84.5376L163.465 84.5376ZM163.465 77.894L163.465 84.5376L166.312 84.5376L166.312 77.894L163.465 77.894Z" fill="#1B1B1B"/>
<path id="Rectangle 53" d="M23 57.9631L23 40.8796C23 37.7346 25.5495 35.1851 28.6945 35.1851H131.196C134.34 35.1851 136.89 37.7346 136.89 40.8796V113.959C136.89 117.104 134.34 119.653 131.196 119.653H28.6945C25.5495 119.653 23 117.104 23 113.959V67.4539" stroke="#1B1B1B" stroke-width="2.84725"/>
<path id="Vector 50" d="M81.3685 118.23V138.161M81.3685 138.161H62.8613M81.3685 138.161H99.401" stroke="#1B1B1B" stroke-width="2.84725"/>
<path id="Vector 51" d="M208.071 49.896H242.713" stroke="#1B1B1B" stroke-width="2.84725"/>
<path id="Vector 52" d="M208.071 56.0649H242.713" stroke="#1B1B1B" stroke-width="2.84725"/>
<path id="Vector 57" d="M185.293 88.334H206.173" stroke="#1B1B1B" stroke-width="2.84725"/>
<path id="Vector 59" d="M185.293 76.9448H188.14" stroke="#1B1B1B" stroke-width="2.84725"/>
<path id="Vector 62" d="M188.141 71.2505H190.988" stroke="#1B1B1B" stroke-width="2.84725"/>
<path id="Vector 60" d="M191.937 76.9448H194.784" stroke="#1B1B1B" stroke-width="2.84725"/>
<path id="Vector 63" d="M194.784 71.2505H197.631" stroke="#1B1B1B" stroke-width="2.84725"/>
<path id="Vector 61" d="M198.581 76.9448H201.428" stroke="#1B1B1B" stroke-width="2.84725"/>
<path id="Vector 64" d="M201.428 71.2505H204.275" stroke="#1B1B1B" stroke-width="2.84725"/>
<path id="Vector 58" d="M185.293 94.0283H203.326" stroke="#1B1B1B" stroke-width="2.84725"/>
<path id="Vector 53" d="M71.8821 69.3087L73.6469 64.5633C74.0616 63.4482 75.1259 62.7085 76.3156 62.7085H80.3513C82.4008 62.7085 83.7791 64.8088 82.9633 66.689L80.9043 71.4345C80.4528 72.4751 79.4267 73.1484 78.2923 73.1484H74.5508C72.5661 73.1484 71.1903 71.1689 71.8821 69.3087Z" stroke="#1B1B1B" stroke-width="2.84725"/>
<path id="Vector 55" d="M66.3057 84.4368L68.1882 79.6914C68.6186 78.6064 69.6676 77.894 70.8348 77.894H75.49C77.5692 77.894 78.9472 80.0503 78.0739 81.9372L75.8777 86.6826C75.4117 87.6895 74.4032 88.334 73.2937 88.334H68.9524C66.9415 88.334 65.5643 86.306 66.3057 84.4368Z" stroke="#1B1B1B" stroke-width="2.84725"/>
<path id="Vector 54" d="M86.2364 69.2513L88.1189 64.5059C88.5493 63.4209 89.5983 62.7085 90.7655 62.7085H95.4206C97.4998 62.7085 98.8778 64.8647 98.0046 66.7516L95.8083 71.497C95.3423 72.5039 94.3339 73.1484 93.2244 73.1484H88.883C86.8722 73.1484 85.4949 71.1204 86.2364 69.2513Z" stroke="#1B1B1B" stroke-width="2.84725"/>
<path id="Vector 56" d="M81.3728 84.4942L83.1376 79.7488C83.5523 78.6337 84.6166 77.894 85.8063 77.894H89.842C91.8916 77.894 93.2698 79.9944 92.454 81.8746L90.395 86.62C89.9435 87.6606 88.9174 88.334 87.783 88.334H84.0415C82.0568 88.334 80.681 86.3544 81.3728 84.4942Z" stroke="#1B1B1B" stroke-width="2.84725"/>
</g>
</g>
</g>
</g>
</g>
<defs>
<clipPath id="clip0_1083_5433">
<rect width="1440" height="1512" fill="white" transform="translate(-179 -197)"/>
</clipPath>
</defs>
</svg>
