<svg width="317" height="180" viewBox="0 0 317 180" fill="none" xmlns="http://www.w3.org/2000/svg">
<path fill-rule="evenodd" clip-rule="evenodd" d="M233.903 3.84929H311.226C312.289 3.84929 313.151 4.71098 313.151 5.77393V128.31H317V5.77393C317 2.58508 314.415 0 311.226 0H229.108V0.0676124C228.167 -0.0389165 227.177 0.0870777 226.214 0.49529L155.862 30.3053L157.364 33.8495L227.716 4.03953C228.985 3.50177 230.391 4.43331 230.391 5.81165V173.965C230.391 175.232 229.188 176.154 227.965 175.823L147.771 154.165C146.932 153.938 146.348 153.177 146.348 152.307V134.725H142.499V152.307C142.499 154.916 144.249 157.201 146.768 157.881L226.961 179.539C227.857 179.781 228.749 179.799 229.586 179.633H311.226C314.415 179.633 317 177.048 317 173.859V144.348H313.151V173.859C313.151 174.922 312.289 175.784 311.226 175.784H233.95C234.138 175.216 234.24 174.605 234.24 173.965V5.81165C234.24 5.11453 234.12 4.45551 233.903 3.84929Z" fill="#1B1B1B"/>
<circle cx="214.352" cy="79.5524" r="39.1344" fill="#74A9E8"/>
<path d="M224.721 117.288C245.562 111.562 257.815 90.0249 252.089 69.1839C246.362 48.3429 224.825 36.0899 203.984 41.8161C183.143 47.5423 170.89 69.0793 176.617 89.9203" stroke="#1B1B1B" stroke-width="3.84929" stroke-linecap="square"/>
<path d="M174.576 80.193H205.37C207.496 80.193 209.22 78.4696 209.22 76.3437V46.191V41.0586" stroke="#1B1B1B" stroke-width="3.84929"/>
<path d="M195.748 45.5498V62.2301C195.748 64.356 194.024 66.0793 191.898 66.0793H182.917H178.426" stroke="#1B1B1B" stroke-width="3.84929"/>
<path d="M240.656 106.497L284.923 150.764" stroke="#1B1B1B" stroke-width="3.84929"/>
<path d="M218.201 68.6453H220.126V64.7961H218.201V68.6453ZM209.22 68.6453H218.201V64.7961H209.22V68.6453Z" fill="#1B1B1B"/>
<path d="M182.275 89.175L182.275 91.0997L186.124 91.0997L186.124 89.175L182.275 89.175ZM182.275 80.1934L182.275 89.175L186.124 89.175L186.124 80.1934L182.275 80.1934Z" fill="#1B1B1B"/>
<path d="M218.201 59.0223H220.126V55.173H218.201V59.0223ZM209.22 59.0223H218.201V55.173H209.22V59.0223Z" fill="#1B1B1B"/>
<path d="M191.898 89.175L191.898 91.0997L195.747 91.0997L195.747 89.175L191.898 89.175ZM191.898 80.1934L191.898 89.175L195.747 89.175L195.747 80.1934L191.898 80.1934Z" fill="#1B1B1B"/>
<path d="M2 53.2484L2 30.1527C2 25.9009 5.44677 22.4541 9.69857 22.4541H148.273C152.525 22.4541 155.971 25.9009 155.971 30.1527V128.951C155.971 133.203 152.525 136.65 148.273 136.65H9.69857C5.44676 136.65 2 133.203 2 128.951V66.0794" stroke="#1B1B1B" stroke-width="3.84929"/>
<path d="M80.9105 134.725V161.67M80.9105 161.67H55.8901M80.9105 161.67H105.289" stroke="#1B1B1B" stroke-width="3.84929"/>
<path d="M252.204 42.3418H299.037" stroke="#1B1B1B" stroke-width="3.84929"/>
<path d="M252.204 50.6826H299.037" stroke="#1B1B1B" stroke-width="3.84929"/>
<path d="M221.409 94.3076H249.637" stroke="#1B1B1B" stroke-width="3.84929"/>
<path d="M221.409 78.9102H225.258" stroke="#1B1B1B" stroke-width="3.84929"/>
<path d="M225.259 71.2119H229.108" stroke="#1B1B1B" stroke-width="3.84929"/>
<path d="M230.391 78.9102H234.24" stroke="#1B1B1B" stroke-width="3.84929"/>
<path d="M234.24 71.2119H238.09" stroke="#1B1B1B" stroke-width="3.84929"/>
<path d="M239.373 78.9102H243.222" stroke="#1B1B1B" stroke-width="3.84929"/>
<path d="M243.222 71.2119H247.071" stroke="#1B1B1B" stroke-width="3.84929"/>
<path d="M221.409 102.006H245.788" stroke="#1B1B1B" stroke-width="3.84929"/>
<path d="M68.0853 68.5871L70.4713 62.1716C71.0319 60.6641 72.4707 59.6641 74.0791 59.6641H79.5351C82.306 59.6641 84.1692 62.5036 83.0663 65.0455L80.2827 71.461C79.6723 72.8678 78.2851 73.7781 76.7515 73.7781H71.6932C69.0101 73.7781 67.1501 71.1019 68.0853 68.5871Z" stroke="#1B1B1B" stroke-width="3.84929"/>
<path d="M60.5461 89.0387L63.0911 82.6233C63.673 81.1565 65.0911 80.1934 66.6691 80.1934H72.9626C75.7735 80.1934 77.6365 83.1084 76.4559 85.6594L73.4867 92.0749C72.8567 93.4361 71.4934 94.3074 69.9934 94.3074H64.1241C61.4056 94.3074 59.5437 91.5657 60.5461 89.0387Z" stroke="#1B1B1B" stroke-width="3.84929"/>
<path d="M87.4914 68.5094L90.0364 62.094C90.6183 60.6272 92.0364 59.6641 93.6144 59.6641H99.9079C102.719 59.6641 104.582 62.5791 103.401 65.1301L100.432 71.5456C99.802 72.9068 98.4387 73.7781 96.9387 73.7781H91.0695C88.3509 73.7781 86.489 71.0364 87.4914 68.5094Z" stroke="#1B1B1B" stroke-width="3.84929"/>
<path d="M80.9164 89.1164L83.3023 82.7009C83.863 81.1934 85.3018 80.1934 86.9102 80.1934H92.3661C95.137 80.1934 97.0003 83.0329 95.8974 85.5748L93.1138 91.9903C92.5034 93.3971 91.1161 94.3074 89.5826 94.3074H84.5243C81.8411 94.3074 79.9811 91.6312 80.9164 89.1164Z" stroke="#1B1B1B" stroke-width="3.84929"/>
</svg>
