<svg width="337" height="215" viewBox="0 0 337 215" fill="none" xmlns="http://www.w3.org/2000/svg">
<path d="M45.0591 121.881V83.5322H49.9133H183.114L190.784 102.707L198.454 121.881H45.0591Z" fill="#74A9E8"/>
<path d="M45.0591 181.321V142.972H49.9133H183.114L190.784 162.146L198.454 181.321H45.0591Z" fill="#74A9E8"/>
<path d="M45.0591 62.4404V24.0918H49.9133H183.114L190.784 43.2661L198.454 62.4404H45.0591Z" fill="#74A9E8"/>
<path d="M45.0591 176.527V148.724C45.0591 145.548 47.6345 142.972 50.8114 142.972H69.027H266.522C269.699 142.972 272.275 145.548 272.275 148.724V176.527C272.275 179.704 269.699 182.28 266.522 182.28H50.8114C47.6345 182.28 45.0591 179.704 45.0591 176.527Z" stroke="#1B1B1B" stroke-width="5.75229"/>
<path d="M45.0591 117.087V89.2845C45.0591 86.1076 47.6345 83.5322 50.8114 83.5322H69.027H266.522C269.699 83.5322 272.275 86.1076 272.275 89.2845V117.087C272.275 120.264 269.699 122.84 266.522 122.84H50.8114C47.6345 122.84 45.0591 120.264 45.0591 117.087Z" stroke="#1B1B1B" stroke-width="5.75229"/>
<path d="M45.0591 57.6468V29.8441C45.0591 26.6672 47.6345 24.0918 50.8114 24.0918H69.027H266.522C269.699 24.0918 272.275 26.6672 272.275 29.8441V57.6468C272.275 60.8237 269.699 63.3991 266.522 63.3991H50.8114C47.6345 63.3991 45.0591 60.8237 45.0591 57.6468Z" stroke="#1B1B1B" stroke-width="5.75229"/>
<path d="M29.7202 198.578V8.75229C29.7202 5.57539 32.2956 3 35.4725 3H58.4412H296.243C299.42 3 301.995 5.57538 301.995 8.75229V198.578" stroke="#1B1B1B" stroke-width="5.75229"/>
<path d="M75.7383 159.271V165.023" stroke="#1B1B1B" stroke-width="5.75229"/>
<path d="M75.7383 99.8306V105.583" stroke="#1B1B1B" stroke-width="5.75229"/>
<path d="M75.7383 40.3896V46.1419" stroke="#1B1B1B" stroke-width="5.75229"/>
<path d="M246.39 162.147H259.812" stroke="#1B1B1B" stroke-width="13.422"/>
<path d="M246.39 102.707H259.812" stroke="#1B1B1B" stroke-width="13.422"/>
<path d="M246.39 43.2656H259.812" stroke="#1B1B1B" stroke-width="13.422"/>
<path d="M227.214 162.147H240.636" stroke="#1B1B1B" stroke-width="13.422"/>
<path d="M227.214 102.707H240.636" stroke="#1B1B1B" stroke-width="13.422"/>
<path d="M227.214 43.2656H240.636" stroke="#1B1B1B" stroke-width="13.422"/>
<path d="M208.042 162.147H221.464" stroke="#1B1B1B" stroke-width="13.422"/>
<path d="M208.042 102.707H221.464" stroke="#1B1B1B" stroke-width="13.422"/>
<path d="M208.042 43.2656H221.464" stroke="#1B1B1B" stroke-width="13.422"/>
<path d="M64.2334 159.271V165.023" stroke="#1B1B1B" stroke-width="5.75229"/>
<path d="M64.2334 99.8306V105.583" stroke="#1B1B1B" stroke-width="5.75229"/>
<path d="M64.2334 40.3896V46.1419" stroke="#1B1B1B" stroke-width="5.75229"/>
<path d="M274.192 108.458H276.109C280.345 108.458 283.779 111.892 283.779 116.128V155.436C283.779 159.671 280.345 163.105 276.109 163.105H255.018" stroke="#1B1B1B" stroke-width="5.75229"/>
<path d="M283.78 148.725V203.371C283.78 207.607 280.346 211.041 276.11 211.041H0" stroke="#1B1B1B" stroke-width="5.75229"/>
<path d="M274.193 44.2246H276.11C280.346 44.2246 283.78 47.6585 283.78 51.8943V102.706V122.839" stroke="#1B1B1B" stroke-width="5.75229"/>
<path d="M233.926 101.747V101.747C233.926 98.0411 236.931 95.0364 240.637 95.0364H282.821C287.057 95.0364 290.49 91.6026 290.49 87.3667V48.0594C290.49 43.8235 287.057 40.3896 282.821 40.3896H255.977C254.388 40.3896 253.101 41.6773 253.101 43.2658V43.2658" stroke="#74A9E8" stroke-width="5.75229"/>
<path d="M275.151 158.312H282.821C287.056 158.312 290.49 154.878 290.49 150.642V102.706C290.49 98.4705 287.056 95.0366 282.821 95.0366L260.77 95.0366C257.064 95.0366 254.059 98.0412 254.059 101.748V101.748" stroke="#74A9E8" stroke-width="5.75229"/>
<path d="M290.491 150.642V204.33C290.491 208.566 293.925 212 298.161 212H336.51" stroke="#74A9E8" stroke-width="5.75229"/>
</svg>
