<svg width="717" height="467" viewBox="0 0 717 467" fill="none" xmlns="http://www.w3.org/2000/svg">
<path d="M233.305 331.723H201.289V388H123.734V331.723H7.80082V274.055L128.706 97.2711H201.289V273.061H233.305V331.723ZM123.734 273.061V239.255C123.734 236.206 123.801 232.361 123.933 227.721C124.066 223.081 124.198 218.441 124.331 213.801C124.596 209.029 124.795 205.052 124.928 201.87C125.193 198.556 125.392 196.766 125.524 196.501H123.337C120.818 202.466 118.498 207.438 116.377 211.415C114.256 215.26 111.472 219.833 108.025 225.136L75.8099 273.061H123.734ZM463.78 243.033C463.78 266.366 461.924 287.246 458.212 305.673C454.5 323.968 448.534 339.545 440.315 352.405C432.228 365.264 421.49 375.074 408.1 381.835C394.71 388.597 378.271 391.977 358.783 391.977C334.523 391.977 314.637 386.078 299.126 374.279C283.615 362.347 272.148 345.312 264.724 323.173C257.433 300.901 253.787 274.188 253.787 243.033C253.787 211.614 257.101 184.768 263.73 162.496C270.491 140.092 281.561 122.924 296.939 110.992C312.317 99.0608 332.932 93.0951 358.783 93.0951C383.044 93.0951 402.863 99.0608 418.242 110.992C433.753 122.791 445.22 139.893 452.644 162.297C460.068 184.569 463.78 211.481 463.78 243.033ZM331.938 243.033C331.938 261.991 332.601 277.9 333.926 290.759C335.385 303.618 338.036 313.296 341.881 319.792C345.858 326.155 351.492 329.337 358.783 329.337C366.075 329.337 371.643 326.155 375.487 319.792C379.332 313.296 381.983 303.685 383.442 290.958C384.9 278.098 385.629 262.124 385.629 243.033C385.629 223.81 384.9 207.769 383.442 194.91C381.983 182.05 379.332 172.373 375.487 165.877C371.643 159.248 366.075 155.934 358.783 155.934C351.492 155.934 345.858 159.248 341.881 165.877C338.036 172.373 335.385 182.05 333.926 194.91C332.601 207.769 331.938 223.81 331.938 243.033ZM710.562 331.723H678.546V388H600.991V331.723H485.058V274.055L605.963 97.2711H678.546V273.061H710.562V331.723ZM600.991 273.061V239.255C600.991 236.206 601.058 232.361 601.19 227.721C601.323 223.081 601.455 218.441 601.588 213.801C601.853 209.029 602.052 205.052 602.184 201.87C602.45 198.556 602.648 196.766 602.781 196.501H600.594C598.075 202.466 595.755 207.438 593.634 211.415C591.512 215.26 588.728 219.833 585.282 225.136L553.067 273.061H600.991Z" fill="#4A7FB0"/>
<path d="M675 375C675 375 710.5 385 696 412.5C676.928 448.672 548.5 403.867 493 412.5C444.5 420.044 424 442 400.5 449.5" stroke="#4A7FB0" stroke-width="4"/>
<rect x="72" y="350" width="19" height="19" rx="3" fill="#DBE5EF"/>
<path fill-rule="evenodd" clip-rule="evenodd" d="M611 240C611 238.343 612.343 237 614 237H667C668.657 237 670 238.343 670 240V250C670 251.657 668.657 253 667 253H614C612.343 253 611 251.657 611 250V240ZM611 261C611 259.343 612.343 258 614 258H667C668.657 258 670 259.343 670 261V271C670 272.657 668.657 274 667 274H614C612.343 274 611 272.657 611 271V261ZM614 279C612.343 279 611 280.343 611 282V292C611 293.657 612.343 295 614 295H667C668.657 295 670 293.657 670 292V282C670 280.343 668.657 279 667 279H614ZM611 303C611 301.343 612.343 300 614 300H667C668.657 300 670 301.343 670 303V313C670 314.657 668.657 316 667 316H614C612.343 316 611 314.657 611 313V303ZM614 321C612.343 321 611 322.343 611 324V334C611 335.657 612.343 337 614 337H667C668.657 337 670 335.657 670 334V324C670 322.343 668.657 321 667 321H614ZM611 345C611 343.343 612.343 342 614 342H667C668.657 342 670 343.343 670 345V355C670 356.657 668.657 358 667 358H614C612.343 358 611 356.657 611 355V345ZM614 363C612.343 363 611 364.343 611 366V376C611 377.657 612.343 379 614 379H667C668.657 379 670 377.657 670 376V366C670 364.343 668.657 363 667 363H614Z" fill="#DBE5EF"/>
<rect x="616.5" y="243.5" width="3" height="3" stroke="#4A7FB0"/>
<rect x="616.5" y="264.5" width="3" height="3" stroke="#4A7FB0"/>
<rect x="616.5" y="285.5" width="3" height="3" stroke="#4A7FB0"/>
<rect x="616.5" y="306.5" width="3" height="3" stroke="#4A7FB0"/>
<rect x="616.5" y="327.5" width="3" height="3" stroke="#4A7FB0"/>
<rect x="616.5" y="348.5" width="3" height="3" stroke="#4A7FB0"/>
<rect x="616.5" y="369.5" width="3" height="3" stroke="#4A7FB0"/>
<rect x="622.5" y="243.5" width="3" height="3" stroke="#4A7FB0"/>
<rect x="622.5" y="264.5" width="3" height="3" stroke="#4A7FB0"/>
<rect x="622.5" y="285.5" width="3" height="3" stroke="#4A7FB0"/>
<rect x="622.5" y="306.5" width="3" height="3" stroke="#4A7FB0"/>
<rect x="622.5" y="327.5" width="3" height="3" stroke="#4A7FB0"/>
<rect x="622.5" y="348.5" width="3" height="3" stroke="#4A7FB0"/>
<rect x="622.5" y="369.5" width="3" height="3" stroke="#4A7FB0"/>
<circle cx="81.5" cy="360.5" r="8.5" fill="#4A7FB0" />
<path d="M82.0005 366C80.3339 380.667 86.0005 428.04 166.001 411.5C284.501 387 278.5 475 372.5 458" stroke="#4A7FB0" stroke-width="4"/>
<path d="M372 458.5C375 456.833 380.7 452.8 379.5 450C378.3 447.2 380.667 443.833 382 442.5" stroke="#4A7FB0"/>
<path d="M371.5 457C373.167 457.333 377.1 457.8 379.5 457C381.9 456.2 383.167 454 383.5 453" stroke="#4A7FB0"/>
<path d="M401 449.5C398 449.667 392 449.6 392 448C392 446.4 389.333 447 388 447.5" stroke="#4A7FB0"/>
<path d="M402.5 449.5C400.333 449.5 395.5 449.5 393.5 456" stroke="#4A7FB0"/>
<path d="M388.5 439L389.445 441.555L392 442.5L389.445 443.445L388.5 446L387.555 443.445L385 442.5L387.555 441.555L388.5 439Z" fill="#4A7FB0"/>
<path d="M387.5 456L388.985 460.015L393 461.5L388.985 462.985L387.5 467L386.015 462.985L382 461.5L386.015 460.015L387.5 456Z" fill="#4A7FB0"/>
<path d="M385 446L385.54 447.46L387 448L385.54 448.54L385 450L384.46 448.54L383 448L384.46 447.46L385 446Z" fill="#4A7FB0"/>
</svg>
