<svg width="32" height="33" viewBox="0 0 32 33" fill="none" xmlns="http://www.w3.org/2000/svg">
<g id="socials">
<path id="bg" d="M32 16C32 7.16344 24.8366 0 16 0C7.16344 0 0 7.16344 0 16V17C0 25.8366 7.16344 33 16 33C24.8366 33 32 25.8366 32 17V16Z" fill="black"/>
<g id="Page-1">
<g id="Icon-Set-Filled">
<path id="phone" fill-rule="evenodd" clip-rule="evenodd" d="M25.4737 9.12222L23.7109 7.36429C23.2246 6.87857 22.4351 6.87857 21.9481 7.36429L19.3039 10.8801C18.9002 11.4749 18.8176 12.1523 19.3039 12.638L20.3831 13.7142C19.5832 14.7861 18.6228 15.9548 17.5417 17.0328C16.3191 18.2517 14.9593 19.3598 13.7368 20.27L12.6936 19.2305C12.2073 18.7448 11.528 18.8269 10.9308 19.2305L7.4052 21.8674C6.81412 22.2747 6.91825 23.1396 7.4052 23.6253L9.16801 25.3826C10.1419 26.3541 11.408 26.0429 12.6936 25.3826C12.6936 25.3826 16.5849 23.2045 19.9164 19.8822C23.05 16.7572 25.4737 12.638 25.4737 12.638C25.9791 11.2519 26.4476 10.0931 25.4737 9.12222Z" fill="white"/>
</g>
</g>
</g>
</svg>
